PathFileType	4	(X/Y/Z)	C:/Users/opensim2020/Desktop/walking_exp_matlab/subject06_walking12_straigt_02.trc																																																																																																																																														
DataRate	CameraRate	NumFrames	NumMarkers	Units	OrigDataRate	OrigDataStartFrame	OrigNumFrames																																																																																																																																										
100	100	5	48	mm	100	1574	215																																																																																																																																										
Frame#	Time	LFHD			RFHD			LBHD			RBHD			C7			T10			CLAV			STRN			RBAK			LSHO			LUPA			LELB			LFRM			LWRA			LWRB			LFIN			RSHO			RUPA			RELB			RFRM			RWRA			RWRB			RFIN			LASI			RASI			LPSI			RPSI			LTHI			LKNE			LTIB			LANK			LHEE			LTOE			RTHI			RKNE			RTIB			RANK			RHEE			RTOE			*39			*40			*41			*42			*43			*44			*45			*46			*47		
		X1	Y1	Z1	X2	Y2	Z2	X3	Y3	Z3	X4	Y4	Z4	X5	Y5	Z5	X6	Y6	Z6	X7	Y7	Z7	X8	Y8	Z8	X9	Y9	Z9	X10	Y10	Z10	X11	Y11	Z11	X12	Y12	Z12	X13	Y13	Z13	X14	Y14	Z14	X15	Y15	Z15	X16	Y16	Z16	X17	Y17	Z17	X18	Y18	Z18	X19	Y19	Z19	X20	Y20	Z20	X21	Y21	Z21	X22	Y22	Z22	X23	Y23	Z23	X24	Y24	Z24	X25	Y25	Z25	X26	Y26	Z26	X27	Y27	Z27	X28	Y28	Z28	X29	Y29	Z29	X30	Y30	Z30	X31	Y31	Z31	X32	Y32	Z32	X33	Y33	Z33	X34	Y34	Z34	X35	Y35	Z35	X36	Y36	Z36	X37	Y37	Z37	X38	Y38	Z38	X39	Y39	Z39	X40	Y40	Z40	X41	Y41	Z41	X42	Y42	Z42	X43	Y43	Z43	X44	Y44	Z44	X45	Y45	Z45	X46	Y46	Z46	X47	Y47	Z47	X48	Y48	Z48
																																																																																																																																																	
135	1.34	184.26241	1645.13684	-1490.46008	181.02057	1633.50586	-1358.46265	47.87416	1595.74255	-1492.83191	46.90625	1590.15063	-1363.46558	42.41602	1431.2262	-1433.21558	18.11387	1100.53894	-1417.28687	155.39218	1358.16748	-1433.40613	202.36426	1183.64844	-1434.36719	-23.619	1258.73608	-1347.28381	90.95861	1386.91895	-1594.1073	25.39491	1198.11035	-1656.28943	-21.18877	1094.97937	-1659.05017	-59.01126	949.31842	-1678.88025	-45.74534	818.86804	-1637.75671	-105.24456	839.19495	-1670.73474	-102.97339	748.2124	-1670.56836	107.09463	1391.51501	-1272.9054	107.21194	1193.15405	-1180.81152	148.51723	1080.52112	-1165.50061	224.61047	990.91364	-1149.54932	355.77271	921.41541	-1183.52673	312.32245	886.34857	-1146.93652	387.84454	851.96179	-1142.95483	201.24448	944.79877	-1519.42078	187.53864	946.49982	-1301.36987	39.17027	967.03961	-1504.38892	36.93854	972.69489	-1335.87183	202.11758	637.651	-1589.01733	258.30072	488.45706	-1559.39771	289.9136	233.48048	-1551.12219	336.92865	68.95432	-1512.45251	304.05115	49.17471	-1463.19763	483.8338	65.88268	-1515.21826	84.5006	614.90118	-1254.12512	60.02113	489.39645	-1272.83704	-114.26488	278.58609	-1276.60266	-227.75084	130.04225	-1318.43726	-275.29895	128.25746	-1362.14441	-109.94562	35.60653	-1326.36438	84.23228	1687.03931	-1432.36743	NaN	NaN	NaN	NaN	NaN	NaN	NaN	NaN	NaN	NaN	NaN	NaN	NaN	NaN	NaN	NaN	NaN	NaN	NaN	NaN	NaN	NaN	NaN	NaN
136	1.35	195.56969	1646.3479	-1491.51025	192.03725	1634.4585	-1359.52185	59.59704	1596.42883	-1494.50769	58.0831	1590.5686	-1365.20886	53.89876	1431.6925	-1435.38025	31.15249	1100.55481	-1419.29785	167.26773	1359.08948	-1434.87354	214.68643	1184.42017	-1435.62329	-11.81181	1258.45667	-1350.20544	103.58138	1387.21753	-1596.11218	39.10356	1197.88989	-1658.1908	-7.23021	1094.578	-1660.83081	-44.6155	948.76239	-1680.49829	-31.09889	818.45734	-1638.9563	-90.64099	838.57593	-1672.09631	-88.26037	747.70746	-1671.79077	117.98383	1391.84094	-1274.35413	117.70344	1192.86414	-1182.70215	158.79153	1080.13806	-1167.22925	234.16734	989.79633	-1151.07031	364.96292	919.2182	-1184.28198	320.97101	884.55194	-1147.87549	396.12778	849.52917	-1143.6123	215.16287	945.37592	-1520.43652	201.03003	946.73486	-1302.49939	53.07375	968.20966	-1506.08435	50.68478	972.52881	-1337.53699	215.27675	638.53009	-1590.94348	269.71432	489.28323	-1561.59619	299.62479	234.6579	-1552.995	341.9241	68.72102	-1513.41626	307.84464	50.62356	-1464.12231	487.71017	61.04442	-1516.37061	99.79541	614.07098	-1255.01917	76.84923	488.20651	-1273.19141	-102.38038	282.23895	-1277.55737	-220.45181	137.8826	-1319.15918	-267.23361	138.71077	-1363.11096	-109.0489	35.90081	-1326.88867	95.29948	1687.69092	-1433.72083	NaN	NaN	NaN	NaN	NaN	NaN	NaN	NaN	NaN	NaN	NaN	NaN	NaN	NaN	NaN	NaN	NaN	NaN	NaN	NaN	NaN	NaN	NaN	NaN
137	1.36	206.9156	1647.85168	-1492.61938	202.94983	1635.74805	-1360.60962	71.27692	1597.66577	-1496.26257	69.2423	1591.58032	-1366.98254	65.63988	1432.93042	-1437.46216	43.95248	1101.17126	-1421.09619	178.94215	1360.35474	-1436.29272	227.0274	1185.77246	-1436.89185	0.02231	1258.63501	-1352.99097	116.17519	1387.89612	-1598.08472	53.23733	1197.86182	-1660.14575	7.37344	1094.22607	-1662.70166	-29.33823	948.17828	-1682.01709	-15.64936	818.05359	-1640.0863	-74.97971	837.99847	-1673.67175	-72.3476	746.88959	-1672.88928	128.91162	1392.70911	-1275.64941	128.03412	1193.08142	-1184.74207	168.93407	1080.18201	-1169.08252	243.22627	988.89642	-1152.65515	373.53177	916.98242	-1184.84106	328.4537	882.5871	-1149.26306	403.5325	846.78894	-1144.1438	229.05661	946.77167	-1521.62109	214.06032	947.30908	-1304.03992	66.74471	970.26514	-1507.4165	63.84702	972.84302	-1338.86707	227.75984	640.70148	-1592.61328	281.11499	490.80374	-1563.93079	307.85614	235.8812	-1555.25427	344.31186	68.49626	-1514.64954	309.99326	51.94831	-1465.19287	490.07086	54.72417	-1516.65759	115.3875	613.55505	-1255.74512	94.88432	487.26013	-1273.27734	-88.81619	286.31354	-1278.54089	-211.56038	146.49347	-1320.32971	-257.20572	150.08908	-1364.7572	-108.08291	36.50268	-1327.52698	106.44666	1688.96948	-1435.12012	NaN	NaN	NaN	NaN	NaN	NaN	NaN	NaN	NaN	NaN	NaN	NaN	NaN	NaN	NaN	NaN	NaN	NaN	NaN	NaN	NaN	NaN	NaN	NaN
138	1.37	218.48557	1649.24487	-1493.6665	214.00513	1637.05945	-1361.79956	82.97504	1599.09766	-1498.07764	80.37251	1592.82959	-1368.84131	77.55421	1434.55859	-1439.25134	56.53088	1102.28577	-1422.70056	190.52638	1361.88489	-1437.6532	239.162	1187.39209	-1438.18616	11.97003	1259.34106	-1355.50037	128.97859	1388.91345	-1599.80371	67.8337	1198.03503	-1662.06238	22.73355	1094.0531	-1664.67676	-13.00752	947.65875	-1683.62378	0.8563	817.91656	-1641.16748	-58.15677	837.30292	-1675.42737	-55.05399	746.16309	-1674.08655	140.07106	1393.95459	-1276.98962	138.00128	1193.93738	-1186.8739	178.93279	1080.71313	-1171.16333	251.84859	988.14624	-1154.43286	381.17838	914.23071	-1185.7478	335.42645	880.52722	-1150.2323	409.76624	843.71637	-1144.58069	242.77878	948.93811	-1522.79224	227.39539	948.47919	-1305.48657	80.20512	972.4472	-1508.21204	77.1671	973.20605	-1339.8783	240.10936	643.39709	-1594.38306	292.40054	492.40689	-1565.96741	313.7392	236.38585	-1557.45471	346.09207	68.37192	-1515.36914	311.11691	52.95358	-1466.41541	492.20657	49.78693	-1515.70923	132.41887	613.25055	-1256.43188	114.17187	486.42953	-1272.98743	-73.90099	290.875	-1279.48328	-200.92532	155.51289	-1321.62964	-244.9489	161.65352	-1367.00891	-107.27559	37.29371	-1327.63489	117.80952	1690.34314	-1436.6178	NaN	NaN	NaN	NaN	NaN	NaN	NaN	NaN	NaN	NaN	NaN	NaN	NaN	NaN	NaN	NaN	NaN	NaN	NaN	NaN	NaN	NaN	NaN	NaN
139	1.38	230.14919	1650.47522	-1494.81482	225.00035	1638.22681	-1362.98706	94.49221	1600.42615	-1499.72522	91.3485	1594.08997	-1370.58789	89.29604	1436.04553	-1440.95398	68.92123	1103.66504	-1424.14111	202.13263	1363.36804	-1439.00623	251.46544	1189.15088	-1439.49268	23.89114	1260.401	-1357.54663	141.49973	1390.33325	-1601.45911	82.79681	1198.44568	-1663.93591	38.71957	1094.09851	-1666.60046	4.24836	947.45276	-1685.62354	18.53145	817.95819	-1642.21399	-40.03916	836.72791	-1677.50745	-36.58781	745.63672	-1675.49353	151.34981	1395.4425	-1278.42627	147.7731	1195.04443	-1189.13086	188.77284	1081.64026	-1173.56897	259.85544	987.54211	-1156.32349	388.18057	911.28595	-1186.59167	341.46539	878.38947	-1151.54785	414.98572	840.3252	-1144.96033	256.21301	951.54706	-1524.146	240.46861	949.80865	-1307.37561	93.23589	974.72021	-1509.01855	90.37462	973.69049	-1340.95691	252.33919	645.95709	-1596.35559	302.6322	493.54495	-1567.8418	318.74692	236.75455	-1558.7876	348.67035	68.45481	-1515.09448	312.33771	53.97618	-1466.57617	494.24078	47.44547	-1514.39478	149.84088	613.01031	-1256.83752	134.26001	485.936	-1272.35425	-57.83431	295.67456	-1280.14648	-188.47768	164.44023	-1323.02722	-231.03622	173.01958	-1369.24756	-103.83569	38.83781	-1327.8479	129.15047	1691.66125	-1438.18201	NaN	NaN	NaN	NaN	NaN	NaN	NaN	NaN	NaN	NaN	NaN	NaN	NaN	NaN	NaN	NaN	NaN	NaN	NaN	NaN	NaN	NaN	NaN	NaN
